<svg version="1.1" id="Layer_1" xmlns="http://www.w3.org/2000/svg" xmlns:xlink="http://www.w3.org/1999/xlink" x="0px" y="0px"
	 width="100%" viewBox="0 0 50 50" enable-background="new 0 0 50 50" xml:space="preserve">
<path fill="#2F302B" opacity="1.000000" stroke="none" 
	d="
M22.000000,1.000000 
	C24.700630,1.000000 27.401258,1.000000 30.748434,1.305983 
	C35.641212,4.387820 39.887447,7.163674 43.848045,10.161930 
	C43.369377,12.393171 43.176342,14.402011 42.697563,16.240078 
	C41.278236,16.076706 40.144653,16.084103 38.704681,15.893763 
	C37.919090,15.616510 37.439892,15.536995 36.756035,15.277487 
	C35.959061,14.684898 35.366741,14.272305 34.855125,13.492073 
	C34.864880,10.646980 34.388737,9.247850 31.362268,10.778915 
	C30.285135,11.323828 28.452759,10.375846 26.968483,9.726350 
	C26.199621,8.272182 25.427414,7.201004 24.655205,6.129827 
	C23.705765,6.894227 22.578905,7.520087 21.848471,8.455503 
	C20.753315,9.857991 19.936413,11.477759 18.725065,12.765651 
	C18.421928,8.222586 15.271690,6.974290 12.098799,5.558121 
	C15.494744,3.818591 18.747372,2.409295 22.000000,1.000000 
z"/>
<path fill="#DBDDDB" opacity="1.000000" stroke="none" 
	d="
M1.000000,32.000000 
	C1.000000,30.933481 1.000000,29.866964 1.395643,28.352762 
	C6.474222,26.948061 4.425300,22.863867 5.636824,20.461924 
	C6.943164,22.800306 7.994483,24.852560 8.891215,27.252296 
	C4.623539,36.129597 9.166021,43.148102 19.959896,45.388332 
	C19.610125,47.511295 19.305063,49.255650 19.000000,51.000000 
	C18.555555,51.000000 18.111113,51.000000 17.305368,50.651688 
	C10.826915,46.568951 5.579469,41.993542 2.368129,35.402199 
	C2.227858,35.114288 1.470115,35.127209 1.000000,35.000000 
	C1.000000,34.555557 1.000000,34.111111 1.162963,33.239326 
	C1.217284,32.541325 1.108642,32.270664 1.000000,32.000000 
z"/>
<path fill="#FEFEFE" opacity="1.000000" stroke="none" 
	d="
M44.133678,9.939528 
	C39.887447,7.163674 35.641212,4.387820 31.197491,1.305983 
	C37.590694,1.000000 44.181385,1.000000 51.000000,1.000000 
	C51.000000,7.018513 51.000000,13.039881 50.689163,19.508896 
	C49.605350,19.725895 48.832371,19.495247 48.367477,19.051046 
	C47.161598,15.871505 45.647636,12.905518 44.133678,9.939528 
z"/>
<path fill="#FEFEFE" opacity="1.000000" stroke="none" 
	d="
M51.000000,31.000000 
	C51.000000,37.586136 51.000000,44.172272 51.000000,51.000000 
	C45.649368,51.000000 40.295135,51.000000 34.487194,50.683113 
	C34.399837,49.885769 34.766197,49.405312 35.456627,48.820961 
	C37.301502,47.222015 38.822304,45.726959 40.732323,44.183270 
	C42.086533,43.401409 43.051525,42.668175 44.358498,41.865677 
	C46.800320,38.197613 48.900162,34.598804 51.000000,31.000000 
z"/>
<path fill="#FFFFFF" opacity="1.000000" stroke="none" 
	d="
M21.531088,1.000000 
	C18.747372,2.409295 15.494744,3.818591 11.761623,5.608130 
	C9.835734,7.280919 8.390338,8.573463 6.611659,10.021286 
	C5.441048,12.436814 4.603719,14.697063 3.448066,17.002562 
	C2.419827,18.031874 1.709913,19.015936 1.000000,20.000000 
	C1.000000,13.736866 1.000000,7.473732 1.000000,1.000000 
	C7.685926,1.000000 14.374051,1.000000 21.531088,1.000000 
z"/>
<path fill="#FEFEFE" opacity="1.000000" stroke="none" 
	d="
M1.000000,35.471199 
	C1.470115,35.127209 2.227858,35.114288 2.368129,35.402199 
	C5.579469,41.993542 10.826915,46.568951 16.972034,50.651688 
	C11.741570,51.000000 6.483140,51.000000 1.000000,51.000000 
	C1.000000,45.982281 1.000000,40.962341 1.000000,35.471199 
z"/>
<path fill="#E1E2E2" opacity="1.000000" stroke="none" 
	d="
M35.132553,48.924850 
	C34.766197,49.405312 34.399837,49.885769 34.016739,50.683113 
	C29.310745,51.000000 24.621489,51.000000 19.466118,51.000000 
	C19.305063,49.255650 19.610125,47.511295 20.313076,45.543251 
	C23.468508,45.207005 26.226049,45.094452 29.373207,44.981483 
	C31.784658,44.658184 33.806492,44.335304 35.762337,44.369434 
	C35.508411,46.125916 35.320484,47.525383 35.132553,48.924850 
z"/>
<path fill="#373535" opacity="1.000000" stroke="none" 
	d="
M51.000000,30.750000 
	C48.900162,34.598804 46.800320,38.197613 44.332394,41.634182 
	C43.864391,41.135277 43.640671,40.941639 43.298973,40.503899 
	C43.483887,38.413651 43.662975,36.710526 43.914886,34.632275 
	C44.812843,30.347078 47.709164,29.848616 51.000000,30.000000 
	C51.000000,30.000000 51.000000,30.500000 51.000000,30.750000 
z"/>
<path fill="#D7CEC7" opacity="1.000000" stroke="none" 
	d="
M51.000000,29.600004 
	C47.709164,29.848616 44.812843,30.347078 43.699551,34.623726 
	C43.411396,34.990299 42.980701,34.973694 42.984482,34.637657 
	C42.655102,33.533939 42.321945,32.766262 41.995399,31.999655 
	C42.002014,32.000729 41.996258,32.013775 42.003036,31.644531 
	C41.962734,30.784515 41.915657,30.293739 41.949421,29.480579 
	C43.311771,27.777304 44.593281,26.396412 46.208794,25.016352 
	C47.339241,24.703499 48.135685,24.389814 48.994621,24.390285 
	C49.704739,25.136297 50.352371,25.568148 51.000000,26.000000 
	C51.000000,27.066669 51.000000,28.133339 51.000000,29.600004 
z"/>
<path fill="#D5D7D3" opacity="1.000000" stroke="none" 
	d="
M1.000000,20.444164 
	C1.709913,19.015936 2.419827,18.031874 3.596501,17.273619 
	C4.502775,18.391550 4.942288,19.283672 5.381802,20.175795 
	C4.425300,22.863867 6.474222,26.948061 1.395643,27.952539 
	C1.000000,25.629442 1.000000,23.258884 1.000000,20.444164 
z"/>
<path fill="#D9D4CB" opacity="1.000000" stroke="none" 
	d="
M48.059395,19.264599 
	C48.832371,19.495247 49.605350,19.725895 50.689163,19.978271 
	C51.000000,21.066669 51.000000,22.133339 50.754738,23.590200 
	C50.509472,23.980392 50.018890,23.998547 49.843967,23.718439 
	C48.789333,22.785355 47.909618,22.132380 47.033752,21.240110 
	C47.030193,20.677519 47.021740,20.354244 47.116638,19.814426 
	C47.418606,19.280771 47.698059,19.169685 48.059395,19.264599 
z"/>
<path fill="#B6B3AA" opacity="1.000000" stroke="none" 
	d="
M50.018890,23.998547 
	C50.018890,23.998547 50.509472,23.980392 50.754738,23.990196 
	C51.000000,24.444445 51.000000,24.888889 51.000000,25.666668 
	C50.352371,25.568148 49.704739,25.136297 49.265663,24.357170 
	C49.655773,24.006113 49.837330,24.002331 50.018890,23.998547 
z"/>
<path fill="#FEFEFE" opacity="1.000000" stroke="none" 
	d="
M1.000000,32.250000 
	C1.108642,32.270664 1.217284,32.541325 1.162963,32.905994 
	C1.000000,33.000000 1.000000,32.500000 1.000000,32.250000 
z"/>
<path fill="#DDD2C9" opacity="1.000000" stroke="none" 
	d="
M26.965137,10.109341 
	C28.452759,10.375846 30.285135,11.323828 31.362268,10.778915 
	C34.388737,9.247850 34.864880,10.646980 34.546722,13.360054 
	C33.772659,13.746621 33.387699,13.897568 32.743301,14.076488 
	C32.386013,14.403412 32.288170,14.702364 32.111130,15.322577 
	C32.031464,16.084314 32.031002,16.524794 32.010201,17.277119 
	C31.987177,18.005981 31.984489,18.423000 31.597450,18.917349 
	C27.531998,19.554893 28.015980,22.465893 27.489431,25.000568 
	C26.101372,25.337349 25.049618,25.669920 23.740093,26.197025 
	C22.673285,27.166298 21.864248,27.941032 21.019056,28.523842 
	C20.952356,28.072319 20.947781,27.812265 21.274723,27.337402 
	C21.987883,25.740030 22.395491,24.357016 22.867382,22.643095 
	C22.249960,21.529087 21.568256,20.745981 20.603207,19.979475 
	C19.941427,19.997952 19.562994,19.999830 19.011599,19.741135 
	C18.549404,19.179640 18.260172,18.878721 17.835045,18.410881 
	C17.292292,18.153845 16.885433,18.063730 16.175447,17.879742 
	C15.245954,17.695257 14.619584,17.604649 14.369257,17.377117 
	C16.140270,16.875990 17.535240,16.511784 18.952543,15.816871 
	C19.001772,15.045040 19.028667,14.603917 19.025700,14.078441 
	C18.995834,13.994088 18.942837,13.823149 19.322292,13.896479 
	C22.122877,12.682986 24.544006,11.396164 26.965137,10.109341 
z"/>
<path fill="#262A27" opacity="1.000000" stroke="none" 
	d="
M6.944942,9.866008 
	C8.390338,8.573463 9.835734,7.280919 11.618306,5.938365 
	C15.271690,6.974290 18.421928,8.222586 18.713581,12.970346 
	C18.978214,13.414517 18.942837,13.823149 18.942837,13.823149 
	C18.942837,13.823149 18.995834,13.994088 18.648773,14.006395 
	C16.866524,14.339752 15.431336,14.660802 13.691348,15.031198 
	C12.888751,15.722367 12.390955,16.364191 11.579184,16.952410 
	C11.265207,15.377350 11.265207,13.855897 11.265207,11.939876 
	C10.064898,11.363688 8.504919,10.614848 6.944942,9.866008 
z"/>
<path fill="#DDDDDA" opacity="1.000000" stroke="none" 
	d="
M45.874794,25.015520 
	C44.593281,26.396412 43.311771,27.777304 41.621910,29.521927 
	C40.190594,29.566103 39.167625,29.246548 38.198860,28.732941 
	C38.498642,28.213154 38.744228,27.887415 39.170444,27.173225 
	C39.226440,24.361832 39.101803,21.938890 39.029846,19.259270 
	C39.068684,18.653507 39.054840,18.304424 39.034203,17.644728 
	C39.021957,16.919910 39.016510,16.505707 39.011066,16.091501 
	C40.144653,16.084103 41.278236,16.076706 42.417191,16.534456 
	C43.586746,18.318108 44.750938,19.636610 45.910179,21.204060 
	C45.923492,21.952002 45.941753,22.450994 45.943317,23.294054 
	C45.909344,24.097252 45.892067,24.556387 45.874794,25.015520 
z"/>
<path fill="#2D2D2C" opacity="1.000000" stroke="none" 
	d="
M45.915131,20.955112 
	C44.750938,19.636610 43.586746,18.318108 42.702927,16.705227 
	C43.176342,14.402011 43.369377,12.393171 43.848045,10.161930 
	C45.647636,12.905518 47.161598,15.871505 48.367477,19.051046 
	C47.698059,19.169685 47.418606,19.280771 46.758850,19.946306 
	C46.169479,20.514874 46.042305,20.734993 45.915131,20.955112 
z"/>
<path fill="#282925" opacity="1.000000" stroke="none" 
	d="
M19.322292,13.896479 
	C18.942837,13.823149 18.978214,13.414517 18.989697,13.209822 
	C19.936413,11.477759 20.753315,9.857991 21.848471,8.455503 
	C22.578905,7.520087 23.705765,6.894227 24.655205,6.129827 
	C25.427414,7.201004 26.199621,8.272182 26.968483,9.726350 
	C24.544006,11.396164 22.122877,12.682986 19.322292,13.896479 
z"/>
<path fill="#2D2726" opacity="1.000000" stroke="none" 
	d="
M32.030540,16.965275 
	C32.031002,16.524794 32.031464,16.084314 32.297310,15.211843 
	C32.793800,14.586875 32.940483,14.343097 33.002743,14.048515 
	C33.387699,13.897568 33.772659,13.746621 34.466019,13.727693 
	C35.366741,14.272305 35.959061,14.684898 36.762566,15.831297 
	C37.240452,16.820526 37.507153,17.075953 37.273453,17.153742 
	C35.192215,16.972496 33.611378,16.968885 32.030540,16.965275 
z"/>
<path fill="#CDCACA" opacity="1.000000" stroke="none" 
	d="
M37.773853,17.331377 
	C37.507153,17.075953 37.240452,16.820526 36.967220,16.011292 
	C37.439892,15.536995 37.919090,15.616510 38.704681,15.893763 
	C39.016510,16.505707 39.021957,16.919910 38.849983,17.582985 
	C38.372990,17.665030 38.073421,17.498203 37.773853,17.331377 
z"/>
<path fill="#D8D0C7" opacity="1.000000" stroke="none" 
	d="
M23.997864,26.002491 
	C25.049618,25.669920 26.101372,25.337349 27.561691,25.351536 
	C28.664974,27.116415 29.359694,28.534540 30.000179,29.975883 
	C29.945950,29.999102 29.863586,30.083584 29.474588,30.055454 
	C27.727242,30.387197 26.368891,30.747068 25.010542,31.106939 
	C25.141634,31.569122 25.272726,32.031303 25.403818,32.493484 
	C26.935257,32.328686 28.466696,32.163887 30.173586,32.259556 
	C30.900534,33.341259 31.452030,34.162491 31.839117,35.300919 
	C25.820248,39.189564 25.670626,39.710175 28.983589,44.981895 
	C26.226049,45.094452 23.468508,45.207005 20.357788,45.164642 
	C9.166021,43.148102 4.623539,36.129597 9.181167,27.397667 
	C10.426860,28.436062 11.228015,29.676567 11.980520,31.243439 
	C11.126255,32.550671 10.320640,33.531536 9.531645,34.492165 
	C11.105563,38.119694 13.066465,36.321941 15.397730,34.993683 
	C17.542723,34.381557 19.280210,33.766190 21.286491,32.943695 
	C21.742954,31.866001 21.930618,30.995436 22.462629,30.016315 
	C23.203938,28.606003 23.600901,27.304245 23.997864,26.002491 
z"/>
<path fill="#1F2121" opacity="1.000000" stroke="none" 
	d="
M12.029171,30.917072 
	C11.228015,29.676567 10.426860,28.436062 9.335752,27.050184 
	C7.994483,24.852560 6.943164,22.800306 5.636824,20.461924 
	C4.942288,19.283672 4.502775,18.391550 3.914826,17.228371 
	C4.603719,14.697063 5.441048,12.436814 6.611659,10.021286 
	C8.504919,10.614848 10.064898,11.363688 11.265207,11.939876 
	C11.265207,13.855897 11.265207,15.377350 11.751884,17.166199 
	C12.398136,17.523626 12.557709,17.613661 12.438269,17.858469 
	C12.108033,18.671307 12.056811,19.329369 12.258360,20.257900 
	C16.020613,20.765820 15.929388,23.500765 16.156151,26.267124 
	C16.394371,27.064568 16.741079,27.534792 17.232090,28.109829 
	C17.376392,28.214642 17.299570,28.562975 17.191383,28.878500 
	C17.041649,29.412407 17.000099,29.630791 16.594336,29.911278 
	C14.829804,30.287947 13.429487,30.602510 12.029171,30.917072 
z"/>
<path fill="#3B3B3B" opacity="1.000000" stroke="none" 
	d="
M35.456627,48.820961 
	C35.320484,47.525383 35.508411,46.125916 35.914886,44.107681 
	C36.701252,43.347763 37.269081,43.206612 37.974323,43.355000 
	C38.855530,43.840324 39.599319,44.036114 40.343109,44.231899 
	C38.822304,45.726959 37.301502,47.222015 35.456627,48.820961 
z"/>
<path fill="#DDD7D0" opacity="1.000000" stroke="none" 
	d="
M40.732323,44.183270 
	C39.599319,44.036114 38.855530,43.840324 38.344284,43.304668 
	C40.148937,42.273540 41.721046,41.582283 43.293152,40.891026 
	C43.640671,40.941639 43.864391,41.135277 43.990410,41.703445 
	C43.051525,42.668175 42.086533,43.401409 40.732323,44.183270 
z"/>
<path fill="#DFD8CE" opacity="1.000000" stroke="none" 
	d="
M43.298973,40.503899 
	C41.721046,41.582283 40.148937,42.273540 38.206871,43.015129 
	C37.269081,43.206612 36.701252,43.347763 35.980877,43.750668 
	C33.806492,44.335304 31.784658,44.658184 29.373207,44.981480 
	C25.670626,39.710175 25.820248,39.189564 32.246414,35.307041 
	C35.877502,34.001904 38.936882,33.007839 41.996258,32.013775 
	C41.996258,32.013775 42.002014,32.000729 41.999020,32.335629 
	C42.324249,33.438251 42.652473,34.205971 42.980701,34.973694 
	C42.980701,34.973694 43.411396,34.990299 43.626732,34.998848 
	C43.662975,36.710526 43.483887,38.413651 43.298973,40.503899 
z"/>
<path fill="#DDBFB9" opacity="1.000000" stroke="none" 
	d="
M42.003036,31.644531 
	C38.936882,33.007839 35.877502,34.001904 32.410828,34.989845 
	C31.452030,34.162491 30.900534,33.341259 30.169392,31.938890 
	C29.947693,30.933031 29.905640,30.508307 29.863586,30.083584 
	C29.863586,30.083584 29.945950,29.999102 30.351688,30.002211 
	C31.461502,29.976604 32.165577,29.947889 33.105583,29.882618 
	C33.649239,29.715887 33.877144,29.501028 34.271374,29.075264 
	C34.687225,28.638527 34.856926,28.328007 35.240616,28.020126 
	C35.454601,28.022770 35.881588,27.993273 36.163994,28.113724 
	C37.012482,28.465115 37.578571,28.696053 38.144657,28.926991 
	C39.167625,29.246548 40.190594,29.566103 41.541073,29.844313 
	C41.915657,30.293739 41.962734,30.784515 42.003036,31.644531 
z"/>
<path fill="#A19A94" opacity="1.000000" stroke="none" 
	d="
M46.208794,25.016352 
	C45.892067,24.556387 45.909344,24.097252 46.222370,23.143246 
	C46.688713,22.258717 46.859310,21.869059 47.029907,21.479403 
	C47.909618,22.132380 48.789333,22.785355 49.843967,23.718439 
	C49.837330,24.002331 49.655773,24.006113 49.203171,24.043011 
	C48.135685,24.389814 47.339241,24.703499 46.208794,25.016352 
z"/>
<path fill="#DDBFB9" opacity="1.000000" stroke="none" 
	d="
M42.984482,34.637657 
	C42.652473,34.205971 42.324249,33.438251 41.992409,32.334557 
	C42.321945,32.766262 42.655102,33.533939 42.984482,34.637657 
z"/>
<path fill="#CDC5BE" opacity="1.000000" stroke="none" 
	d="
M47.033752,21.240110 
	C46.859310,21.869059 46.688713,22.258717 46.239067,22.799183 
	C45.941753,22.450994 45.923492,21.952002 45.910179,21.204060 
	C46.042305,20.734993 46.169479,20.514874 46.654446,20.162876 
	C47.021740,20.354244 47.030193,20.677519 47.033752,21.240110 
z"/>
<path fill="#1E1E1F" opacity="1.000000" stroke="none" 
	d="
M35.881588,27.993273 
	C35.881588,27.993273 35.454601,28.022770 34.993370,27.850424 
	C33.918262,27.286400 33.304394,26.894724 32.690521,26.503046 
	C32.809231,27.372030 32.927937,28.241013 33.006523,29.313194 
	C32.966404,29.516392 32.869652,29.919174 32.869652,29.919174 
	C32.165577,29.947889 31.461502,29.976604 30.405918,29.978992 
	C29.359694,28.534540 28.664974,27.116415 27.897997,25.347324 
	C28.015980,22.465893 27.531998,19.554893 31.947475,18.984907 
	C34.864185,18.925058 36.485844,19.298819 34.985374,22.380184 
	C35.518314,23.826704 36.056194,24.921991 36.555439,26.283348 
	C36.305065,27.030703 36.093327,27.511988 35.881588,27.993273 
z"/>
<path fill="#B5C5CA" opacity="1.000000" stroke="none" 
	d="
M36.163994,28.113724 
	C36.093327,27.511988 36.305065,27.030703 36.720276,25.956036 
	C36.279266,24.251419 35.634792,23.140184 34.990314,22.028950 
	C36.485844,19.298819 34.864185,18.925058 32.331825,18.907576 
	C31.984489,18.423000 31.987177,18.005981 32.010201,17.277119 
	C33.611378,16.968885 35.192215,16.972496 37.273453,17.153742 
	C38.073421,17.498203 38.372990,17.665030 38.856777,17.893597 
	C39.054840,18.304424 39.068684,18.653507 39.025230,19.769415 
	C38.975231,22.878050 38.982521,25.219864 38.989811,27.561676 
	C38.744228,27.887415 38.498642,28.213154 38.198860,28.732941 
	C37.578571,28.696053 37.012482,28.465115 36.163994,28.113724 
z"/>
<path fill="#B4C8CF" opacity="1.000000" stroke="none" 
	d="
M16.264639,25.939903 
	C15.929388,23.500765 16.020613,20.765820 12.500482,19.984440 
	C13.819413,18.951546 15.148993,18.462580 16.478573,17.973614 
	C16.885433,18.063730 17.292292,18.153845 17.588837,18.841278 
	C17.650209,21.643028 17.821896,23.847460 17.991495,26.022110 
	C17.989407,25.992327 18.049116,25.992519 17.775349,25.964466 
	C17.318546,25.949074 17.135513,25.961735 16.781092,25.954355 
	C16.609703,25.934315 16.264639,25.939903 16.264639,25.939903 
z"/>
<path fill="#DAD9DA" opacity="1.000000" stroke="none" 
	d="
M17.299570,28.562977 
	C17.299570,28.562975 17.376392,28.214642 17.196608,28.107145 
	C17.016823,27.999649 17.008015,28.070465 17.301205,28.098078 
	C17.693226,27.761724 17.792059,27.397760 18.013363,26.786076 
	C18.106930,26.356409 18.078022,26.174463 18.049116,25.992519 
	C18.049116,25.992519 17.989407,25.992327 18.302570,25.926052 
	C18.805344,23.907089 18.994951,21.954399 19.184559,20.001709 
	C19.562994,19.999830 19.941427,19.997952 20.641113,20.357430 
	C21.037420,21.471928 21.112480,22.225069 21.120584,23.431198 
	C21.025476,25.106709 20.997324,26.329231 20.969170,27.551756 
	C20.947781,27.812265 20.952356,28.072319 20.990978,28.583500 
	C20.999060,28.835083 21.027107,28.960934 20.660976,28.837820 
	C19.296419,28.664129 18.297995,28.613552 17.299570,28.562977 
z"/>
<path fill="#DDD1CE" opacity="1.000000" stroke="none" 
	d="
M13.996148,14.981852 
	C15.431336,14.660802 16.866524,14.339752 18.678638,14.090748 
	C19.028667,14.603917 19.001772,15.045040 18.550068,15.763926 
	C16.779848,16.114073 15.434436,16.186457 14.062933,15.939802 
	C14.023277,15.407793 14.009712,15.194822 13.996148,14.981852 
z"/>
<path fill="#596165" opacity="1.000000" stroke="none" 
	d="
M19.011599,19.741135 
	C18.994951,21.954399 18.805344,23.907089 18.304661,25.955835 
	C17.821896,23.847460 17.650209,21.643028 17.724730,19.008198 
	C18.260172,18.878721 18.549404,19.179640 19.011599,19.741135 
z"/>
<path fill="#7D8186" opacity="1.000000" stroke="none" 
	d="
M16.175447,17.879740 
	C15.148993,18.462580 13.819413,18.951546 12.247711,19.713970 
	C12.056811,19.329369 12.108033,18.671307 12.502481,17.661177 
	C13.241074,17.206846 13.636440,17.104584 14.057405,17.132908 
	C14.083002,17.263496 13.993215,17.514040 13.993215,17.514040 
	C14.619584,17.604649 15.245954,17.695257 16.175447,17.879740 
z"/>
<path fill="#D5CBC4" opacity="1.000000" stroke="none" 
	d="
M23.740093,26.197025 
	C23.600901,27.304245 23.203938,28.606003 22.325268,29.971333 
	C21.843559,30.034904 21.557402,30.033596 21.339909,29.807413 
	C21.090645,29.374464 21.058876,29.167700 21.027107,28.960934 
	C21.027107,28.960934 20.999060,28.835083 21.027138,28.775425 
	C21.864248,27.941032 22.673285,27.166298 23.740093,26.197025 
z"/>
<path fill="#524C50" opacity="1.000000" stroke="none" 
	d="
M21.187538,22.978210 
	C21.112480,22.225069 21.037420,21.471928 20.924458,20.340832 
	C21.568256,20.745981 22.249960,21.529087 22.598194,22.647224 
	C21.905661,22.980907 21.546598,22.979559 21.187538,22.978210 
z"/>
<path fill="#5E5C5B" opacity="1.000000" stroke="none" 
	d="
M21.120584,23.431198 
	C21.546598,22.979559 21.905661,22.980907 22.533909,22.978127 
	C22.395491,24.357016 21.987883,25.740030 21.274723,27.337402 
	C20.997324,26.329231 21.025476,25.106709 21.120584,23.431198 
z"/>
<path fill="#3F3F3C" opacity="1.000000" stroke="none" 
	d="
M14.089024,16.258841 
	C15.434436,16.186457 16.779848,16.114073 18.527737,16.094631 
	C17.535240,16.511784 16.140270,16.875990 14.369257,17.377117 
	C13.993215,17.514040 14.083002,17.263496 14.102291,16.949390 
	C14.121579,16.635283 14.089024,16.258841 14.089024,16.258841 
z"/>
<path fill="#423C37" opacity="1.000000" stroke="none" 
	d="
M32.743301,14.076488 
	C32.940483,14.343097 32.793800,14.586875 32.376511,14.890583 
	C32.288170,14.702364 32.386013,14.403412 32.743301,14.076488 
z"/>
<path fill="#C9C4BD" opacity="1.000000" stroke="none" 
	d="
M14.062933,15.939802 
	C14.089024,16.258841 14.121579,16.635283 14.076693,16.818802 
	C13.636440,17.104584 13.241074,17.206846 12.781494,17.506401 
	C12.557709,17.613661 12.398136,17.523626 12.065861,17.219805 
	C12.390955,16.364191 12.888751,15.722367 13.691348,15.031198 
	C14.009712,15.194822 14.023277,15.407793 14.062933,15.939802 
z"/>
<path fill="#636A6D" opacity="1.000000" stroke="none" 
	d="
M39.170444,27.173225 
	C38.982521,25.219864 38.975231,22.878050 38.972549,20.026093 
	C39.101803,21.938890 39.226440,24.361832 39.170444,27.173225 
z"/>
<path fill="#DABEB8" opacity="1.000000" stroke="none" 
	d="
M21.557402,30.033596 
	C21.557402,30.033596 21.843559,30.034904 21.980923,30.079887 
	C21.930618,30.995436 21.742954,31.866001 20.877653,32.891075 
	C18.463421,33.693871 16.726824,34.342155 14.990225,34.990440 
	C13.066465,36.321941 11.105563,38.119694 9.531645,34.492165 
	C10.320640,33.531536 11.126255,32.550671 11.980520,31.243439 
	C13.429487,30.602510 14.829804,30.287947 17.048283,29.977221 
	C19.096764,29.998569 20.327084,30.016083 21.557402,30.033596 
z"/>
<path fill="#D8C9C1" opacity="1.000000" stroke="none" 
	d="
M15.397731,34.993683 
	C16.726824,34.342155 18.463421,33.693871 20.608856,33.098206 
	C19.280210,33.766190 17.542723,34.381557 15.397731,34.993683 
z"/>
<path fill="#D5CBC4" opacity="1.000000" stroke="none" 
	d="
M29.474588,30.055454 
	C29.905640,30.508307 29.947693,30.933031 29.993940,31.678421 
	C28.466696,32.163887 26.935257,32.328686 25.403818,32.493484 
	C25.272726,32.031303 25.141634,31.569122 25.010542,31.106939 
	C26.368891,30.747068 27.727242,30.387197 29.474588,30.055454 
z"/>
<path fill="#454544" opacity="1.000000" stroke="none" 
	d="
M21.339909,29.807413 
	C20.327084,30.016083 19.096764,29.998569 17.412498,29.915115 
	C17.000099,29.630791 17.041649,29.412407 17.191383,28.878502 
	C18.297995,28.613552 19.296419,28.664129 20.660976,28.837820 
	C21.058876,29.167700 21.090645,29.374464 21.339909,29.807413 
z"/>
<path fill="#96A8AD" opacity="1.000000" stroke="none" 
	d="
M16.156151,26.267124 
	C16.264639,25.939903 16.609703,25.934315 16.858250,26.231401 
	C17.155905,26.713541 17.205013,26.898596 17.171669,27.325134 
	C17.062153,27.734568 17.035084,27.902517 17.008015,28.070465 
	C17.008015,28.070465 17.016823,27.999649 17.052303,28.002331 
	C16.741079,27.534792 16.394371,27.064568 16.156151,26.267124 
z"/>
<path fill="#262628" opacity="1.000000" stroke="none" 
	d="
M33.046646,29.109997 
	C32.927937,28.241013 32.809231,27.372030 32.690521,26.503046 
	C33.304394,26.894724 33.918262,27.286400 34.779381,27.847782 
	C34.856926,28.328007 34.687225,28.638527 34.031441,29.001728 
	C33.379120,29.072939 33.212883,29.091467 33.046646,29.109997 
z"/>
<path fill="#ABA5A5" opacity="1.000000" stroke="none" 
	d="
M33.006523,29.313194 
	C33.212883,29.091467 33.379120,29.072939 33.785294,29.127947 
	C33.877144,29.501028 33.649239,29.715887 33.105583,29.882618 
	C32.869652,29.919174 32.966404,29.516392 33.006523,29.313194 
z"/>
<path fill="#262628" opacity="1.000000" stroke="none" 
	d="
M34.985374,22.380184 
	C35.634792,23.140184 36.279266,24.251419 36.758911,25.689966 
	C36.056194,24.921991 35.518314,23.826704 34.985374,22.380184 
z"/>
<path fill="#596165" opacity="1.000000" stroke="none" 
	d="
M17.254120,27.083649 
	C17.205013,26.898596 17.155905,26.713541 17.029636,26.251442 
	C17.135513,25.961735 17.318546,25.949074 17.775349,25.964466 
	C18.078022,26.174463 18.106930,26.356409 17.854498,26.801399 
	C17.573160,27.064442 17.254120,27.083649 17.254120,27.083649 
z"/>
<path fill="#454544" opacity="1.000000" stroke="none" 
	d="
M17.171669,27.325134 
	C17.254120,27.083649 17.573160,27.064442 17.732025,27.049118 
	C17.792059,27.397760 17.693226,27.761724 17.301205,28.098078 
	C17.035084,27.902517 17.062153,27.734568 17.171669,27.325134 
z"/>
</svg>